<?xml version="1.0" encoding="UTF-8"?> <svg xmlns="http://www.w3.org/2000/svg" xmlns:xlink="http://www.w3.org/1999/xlink" version="1.1" id="Layer_1" x="0px" y="0px" viewBox="0 0 500 124" style="enable-background:new 0 0 500 124;" xml:space="preserve"> <style type="text/css"> .st0{fill:#F7941D;stroke:#F7941D;stroke-width:10;stroke-miterlimit:10;} .st1{fill:#FBB040;} .st2{fill:#E6E7E8;} .st3{fill:#FFFFFF;} .st4{fill:#333333;} .st5{fill:#929497;} </style> <path class="st0" d="M7.9,33.3v48.2c0,4.4,1.5,7.8,3.3,9.7s30.9,22.6,31.3,22.8c0.4-0.2,29.5-21,31.3-22.8s3.3-5.3,3.3-9.7V33.3H7.9 z"></path> <path class="st1" d="M42.5,32.8c0,0,0,0,0,81.1c0.4-0.3,29.5-21.4,31.3-23.2s3.3-5.3,3.3-9.7V32.8H42.5z"></path> <path class="st2" d="M42.5,43.5c-6.8,0-12.2,4.9-12.2,10.9v8.9h4.7v-8.2c0-3.6,3.4-6.5,7.4-6.5 M28.1,81.5h10.6l1.1-5.1 c-0.9-0.6-1.4-1.5-1.4-2.5H28.1c-2.1-0.2-4,1.3-4.2,3.4c-0.2,2.1,1.3,4,3.4,4.2C27.6,81.6,27.9,81.6,28.1,81.5z M42.5,64.8H28.1 c-2.1-0.2-4,1.3-4.2,3.4c-0.2,2.1,1.3,4,3.4,4.2c0.3,0,0.6,0,0.9,0h10.6c0.9-1.2,2.3-1.9,3.7-1.9 M42.5,83H28.1 c-2.1-0.2-4,1.3-4.2,3.4c-0.2,2.1,1.3,4,3.4,4.2c0.3,0,0.6,0,0.9,0h14.4"></path> <path class="st3" d="M42.5,48.5c4.1,0,7.2,3,7.2,6.6v8.2h4.7v-8.9c0-6-5.1-10.9-11.9-10.9 M60.9,77.7c-0.1-2.2-2.1-3.9-4.3-3.8H46.4 c0,1-0.6,2-1.4,2.5l1.1,5.1h10.6C58.9,81.6,60.8,79.9,60.9,77.7z M42.5,70.5c1.4,0,2.7,0.7,3.5,1.9h10.7c2.1,0.2,4-1.3,4.2-3.4 c0.2-2.1-1.3-4-3.4-4.2c-0.3,0-0.6,0-0.9,0H42.5 M42.5,90.6h14.2c2.1,0.3,4-1.2,4.3-3.3c0.3-2.1-1.2-4-3.3-4.3c-0.3,0-0.6,0-1,0 H42.5"></path> <path class="st4" d="M132.2,88.2c-14.9,0-26.6-9.3-26.6-31c0-19,10.8-30.6,25.3-30.6c16.7,0,24.4,13.3,24.4,29.6v2.3h-39 c0.3,13.8,6.7,20.2,16.7,20.2c8.3,0,14.3-3.3,20.6-8.4l1.6,9.9C148.7,85.6,140.5,88.4,132.2,88.2z M116.8,50.3h27.7 c-1.3-9.5-5.4-15-13.7-15C124.1,35.3,118.5,40.2,116.8,50.3z"></path> <path class="st4" d="M195.1,87.8l-14.4-23.2L167.1,87h-11.3l19.3-30.3l-18.1-28l10.6-1.7l13.1,21.5l12.5-20.6h11.2l-18.2,28.6 l19.4,29.8L195.1,87.8z"></path> <path class="st4" d="M244.2,87l-1.2-8c-4.6,4.8-10.8,9.2-20.2,9.2c-10.4,0-16.9-6.4-16.9-16.5c0-14.8,12.3-20.6,36.2-23.2v-2.4 c0-7.4-4.3-10-11-10c-7,0-13.6,2.2-19.9,5.1l-1.4-9.5c6.9-2.9,13.4-5,22.3-5c14,0,20.7,5.8,20.7,19V87H244.2z M242.2,57 c-21.2,2.1-25.7,8-25.7,14.1c0,4.8,3.1,7.9,8.6,7.9c6.3,0,12.3-3.2,17.1-8.3V57z"></path> <path class="st4" d="M331,87V46.7c0-6.1-2.2-10.2-8.4-10.2c-5.7,0-11.1,3.8-16.3,9.5V87h-10.7V46.7c0-6.1-2.2-10.2-8.4-10.2 c-5.7,0-11.1,3.8-16.2,9.5V87h-10.7V27.8h8.5l1.3,8.6c5.4-5.1,11.9-9.8,20-9.8c8.4,0,13,3.7,15.2,9.8c5.2-5.1,12.2-9.8,20.2-9.8 c11,0,16.3,6.7,16.3,17.4v43H331z"></path> <path class="st4" d="M356.4,15.9c-3.8,0-6.9-3.1-6.9-6.9c0-3.8,3-7,6.9-7.1c3.8,0.1,6.8,3.3,6.8,7.1 C363.2,12.8,360.2,15.9,356.4,15.9C356.4,15.9,356.4,15.9,356.4,15.9z M351,87V27.8h10.7V87H351z"></path> <path class="st4" d="M394.1,88c-10.1,0-16.7-3.7-16.7-15.6V37.1h-8.7v-9.3h8.7V8.1l10.5-1.6v21.3h29.4l-5.4,9.3h-24v33.2 c0,4.8,1.9,7.8,8,7.8c1.7,0,3.3-0.1,4.9-0.4l1.5,9.4C399.5,87.8,396.8,88,394.1,88z"></path> <path class="st4" d="M435.9,92c-4.9,13.8-11.1,17.4-20.6,17.4c-1.3,0-2.5-0.2-3.7-0.5l-1.5-9.7c2,0.5,4,0.8,6,0.9 c4.5,0,7.5-2.2,9.2-6.9l2.2-6.1l-20.9-58.5l10.6-0.5l15.7,46l15.3-46.2h11L435.9,92z"></path> <path class="st4" d="M468.4,31.4c0,2.1-1.7,3.8-3.8,3.8c-2.1,0-3.8-1.7-3.8-3.8c0-2.1,1.7-3.8,3.8-3.8 C466.7,27.6,468.4,29.3,468.4,31.4C468.4,31.4,468.4,31.4,468.4,31.4z M461.8,31.4c-0.1,1.6,1.2,2.9,2.8,3c0,0,0.1,0,0.1,0 c1.6,0,2.8-1.3,2.8-2.9c0,0,0-0.1,0-0.1c0.1-1.6-1-2.9-2.6-3.1c-1.6-0.1-2.9,1-3.1,2.6C461.8,31.1,461.8,31.3,461.8,31.4L461.8,31.4 z M464.1,33.4h-0.9v-3.8c0.5-0.1,0.9-0.1,1.4-0.1c0.4,0,0.9,0.1,1.3,0.3c0.2,0.2,0.4,0.5,0.4,0.8c0,0.4-0.3,0.8-0.8,0.9v0 c0.4,0.2,0.6,0.5,0.7,0.9c0,0.3,0.1,0.7,0.3,1h-0.9c-0.1-0.3-0.2-0.6-0.3-0.9c0-0.4-0.3-0.6-0.7-0.6c0,0,0,0-0.1,0h-0.4L464.1,33.4z M464.1,31.3h0.4c0.5,0,0.9-0.2,0.9-0.5s-0.2-0.6-0.8-0.6c-0.2,0-0.3,0-0.5,0V31.3z"></path> <path class="st5" d="M115.8,101.1c1.5-0.3,3.1-0.4,4.6-0.4c2.5,0,4.2,0.4,5.4,1.5c1.1,0.9,1.7,2.2,1.6,3.6c0,2-1.4,3.8-3.3,4.4v0.1 c2.4,0.5,4,2.6,4,5.1c0,1.5-0.6,2.9-1.7,4c-1.4,1.3-3.6,1.9-6.8,1.9c-1.3,0-2.6-0.1-3.9-0.2L115.8,101.1z M118.4,109.4h2.3 c2.7,0,4.2-1.4,4.2-3.4c0-2.4-1.7-3.3-4.3-3.3c-0.8,0-1.5,0-2.2,0.2V109.4z M118.4,119.1c0.7,0.1,1.4,0.1,2.1,0.1c2.6,0,5-1,5-3.9 c0-2.8-2.3-3.9-5.1-3.9h-2.1L118.4,119.1z"></path> <path class="st5" d="M141.7,111.6h-7.6v7.3h8.5v2.2h-11v-20.2h10.6v2.2h-8v6.4h7.6L141.7,111.6z"></path> <path class="st5" d="M150.1,103.1h-6v-2.2h14.5v2.2h-6v18H150L150.1,103.1z"></path> <path class="st5" d="M165.6,103.1h-6v-2.2h14.5v2.2h-6v18h-2.6L165.6,103.1z"></path> <path class="st5" d="M186.5,111.6h-7.6v7.3h8.5v2.2h-11v-20.2H187v2.2h-8v6.4h7.6L186.5,111.6z"></path> <path class="st5" d="M190.7,101.1c1.6-0.3,3.2-0.4,4.9-0.4c2.7,0,4.4,0.5,5.7,1.7c1,1,1.6,2.4,1.5,3.8c0,2.3-1.5,4.4-3.7,5.2v0.1 c1.5,0.5,2.4,2,2.9,4.1c0.3,1.9,0.8,3.7,1.5,5.5h-2.6c-0.6-1.6-1-3.2-1.3-4.8c-0.6-2.8-1.6-3.8-3.9-3.9h-2.4v8.7h-2.5V101.1z M193.2,110.3h2.6c2.7,0,4.4-1.5,4.4-3.8c0-2.6-1.8-3.7-4.5-3.8c-0.8,0-1.7,0.1-2.5,0.2V110.3z"></path> <path class="st5" d="M215,103.1h-6v-2.2h14.5v2.2h-6v18H215V103.1z"></path> <path class="st5" d="M235.9,111.6h-7.6v7.3h8.5v2.2h-11v-20.2h10.6v2.2h-8.1v6.4h7.6L235.9,111.6z"></path> <path class="st5" d="M239.7,117.9c1.4,0.8,2.9,1.3,4.5,1.3c2.6,0,4.1-1.4,4.1-3.4s-1.1-3-3.7-4c-3.2-1.2-5.2-2.9-5.2-5.7 c0-3.1,2.5-5.5,6.3-5.5c1.5,0,3,0.3,4.3,1l-0.7,2.1c-1.1-0.6-2.4-1-3.7-1c-2.7,0-3.7,1.6-3.7,3c0,1.9,1.2,2.8,3.9,3.9 c3.3,1.3,5,3,5,5.9s-2.2,5.8-6.9,5.8c-1.8,0-3.5-0.4-5-1.3L239.7,117.9z"></path> <path class="st5" d="M258.1,103.1h-6v-2.2h14.5v2.2h-6v18h-2.5L258.1,103.1z"></path> <path class="st5" d="M277.5,100.9v20.2H275v-20.2H277.5z"></path> <path class="st5" d="M282,121.1v-20.2h2.8l6.2,10.2c1.3,2.1,2.5,4.3,3.5,6.6h0.1c-0.2-2.7-0.3-5.2-0.3-8.3v-8.4h2.4v20.2h-2.6 l-6.2-10.2c-1.4-2.2-2.6-4.4-3.7-6.7h-0.1c0.1,2.6,0.2,5,0.2,8.3v8.6H282z"></path> <path class="st5" d="M304.8,103.1h-6v-2.2h14.5v2.2h-6v18h-2.5V103.1z"></path> <path class="st5" d="M325.7,111.6h-7.6v7.3h8.5v2.2h-11v-20.2h10.6v2.2h-8.1v6.4h7.6L325.7,111.6z"></path> <path class="st5" d="M344.8,120.2c-1.9,0.7-4,1.1-6,1.1c-2.7,0.2-5.4-0.8-7.3-2.7c-1.9-2-2.8-4.7-2.7-7.5c0-6,4-10.4,10.6-10.4 c1.7,0,3.3,0.3,4.9,0.9l-0.6,2.1c-1.4-0.6-2.8-0.9-4.3-0.9c-4.8,0-7.9,3.1-7.9,8.1s3,8.1,7.6,8.1c1.2,0.1,2.3-0.1,3.4-0.5v-6h-4 v-2.1h6.5L344.8,120.2z"></path> <path class="st5" d="M348.6,101.1c1.6-0.3,3.2-0.4,4.9-0.4c2.7,0,4.5,0.5,5.7,1.7c1,1,1.6,2.4,1.5,3.8c0,2.3-1.5,4.4-3.7,5.2v0.1 c1.5,0.5,2.4,2,2.9,4.1c0.3,1.9,0.8,3.7,1.5,5.5h-2.6c-0.6-1.6-1-3.2-1.3-4.8c-0.6-2.8-1.6-3.8-3.9-3.9h-2.4v8.7h-2.5V101.1z M351.1,110.3h2.6c2.7,0,4.4-1.5,4.4-3.8c0-2.6-1.8-3.7-4.5-3.8c-0.8,0-1.7,0.1-2.5,0.2V110.3z"></path> <path class="st5" d="M366.8,100.9v20.2h-2.5v-20.2H366.8z"></path> <path class="st5" d="M374.9,103.1h-6v-2.2h14.5v2.2h-6v18h-2.6L374.9,103.1z"></path> <path class="st5" d="M390.9,121.1v-8.6l-6.2-11.6h2.9l2.8,5.6c0.8,1.5,1.3,2.8,2,4.2h0.1c0.5-1.3,1.2-2.6,2-4.2l2.8-5.6h2.9 l-6.6,11.6v8.6H390.9z"></path> <path class="st5" d="M398.8,119.5c-0.1-1,0.6-1.8,1.6-1.9c0.1,0,0.1,0,0.2,0c1,0.1,1.8,1,1.7,2c-0.1,0.9-0.8,1.7-1.7,1.7 c-1,0-1.8-0.8-1.8-1.7C398.7,119.6,398.7,119.5,398.8,119.5z"></path> </svg> 