<?xml version="1.0" encoding="UTF-8" standalone="no"?>
<svg
   xmlns:dc="http://purl.org/dc/elements/1.1/"
   xmlns:cc="http://creativecommons.org/ns#"
   xmlns:rdf="http://www.w3.org/1999/02/22-rdf-syntax-ns#"
   xmlns:svg="http://www.w3.org/2000/svg"
   xmlns="http://www.w3.org/2000/svg"
   viewBox="0 0 159.29333 56.52"
   height="56.52"
   width="159.29333"
   xml:space="preserve"
   id="svg2"
   version="1.1"><metadata
     id="metadata8"><rdf:RDF><cc:Work
         rdf:about=""><dc:format>image/svg+xml</dc:format><dc:type
           rdf:resource="http://purl.org/dc/dcmitype/StillImage" /></cc:Work></rdf:RDF></metadata><defs
     id="defs6"><clipPath
       id="clipPath20"
       clipPathUnits="userSpaceOnUse"><path
         id="path18"
         d="M 0,423.938 V 0 h 1194.71 v 423.938 z" /></clipPath></defs><g
     transform="matrix(1.3333333,0,0,-1.3333333,0,56.52)"
     id="g10"><g
       transform="scale(0.1)"
       id="g12"><g
         id="g14"><g
           clip-path="url(#clipPath20)"
           id="g16"><path
             id="path22"
             style="fill:#80cc28;fill-opacity:1;fill-rule:nonzero;stroke:none"
             d="m 1053.55,212.922 c 0,-9.328 -7.57,-16.895 -16.95,-16.895 -9.3,0 -16.92,7.567 -16.92,16.895 0,9.375 7.62,16.933 16.92,16.933 9.38,0 16.95,-7.558 16.95,-16.933" /><path
             id="path24"
             style="fill:#80cc28;fill-opacity:1;fill-rule:nonzero;stroke:none"
             d="m 1035.45,255.703 c 0,-9.363 -7.61,-16.973 -16.94,-16.973 -9.33,0 -16.94,7.61 -16.94,16.973 0,9.297 7.61,16.906 16.94,16.906 9.33,0 16.94,-7.609 16.94,-16.906" /><path
             id="path26"
             style="fill:#80cc28;fill-opacity:1;fill-rule:nonzero;stroke:none"
             d="m 1035.45,171.426 c 0,-9.375 -7.61,-16.914 -16.94,-16.914 -9.33,0 -16.94,7.539 -16.94,16.914 0,9.328 7.61,16.933 16.94,16.933 9.33,0 16.94,-7.605 16.94,-16.933" /><path
             id="path28"
             style="fill:#80cc28;fill-opacity:1;fill-rule:nonzero;stroke:none"
             d="m 993.992,272.996 c 0,-9.363 -7.586,-16.93 -16.961,-16.93 -9.343,0 -16.933,7.567 -16.933,16.93 0,9.375 7.59,16.938 16.933,16.938 9.375,0 16.961,-7.563 16.961,-16.938" /><path
             id="path30"
             style="fill:#80cc28;fill-opacity:1;fill-rule:nonzero;stroke:none"
             d="m 990.391,319.074 c 0,-7.394 -5.957,-13.418 -13.36,-13.418 -7.414,0 -13.386,6.024 -13.386,13.418 0,7.371 5.972,13.379 13.386,13.379 7.403,0 13.36,-6.008 13.36,-13.379" /><path
             id="path32"
             style="fill:#80cc28;fill-opacity:1;fill-rule:nonzero;stroke:none"
             d="m 985.676,357.668 c 0,-4.797 -3.879,-8.703 -8.645,-8.703 -4.785,0 -8.652,3.906 -8.652,8.703 0,4.766 3.867,8.641 8.652,8.641 4.766,0 8.645,-3.875 8.645,-8.641" /><path
             id="path34"
             style="fill:#80cc28;fill-opacity:1;fill-rule:nonzero;stroke:none"
             d="m 982.141,387.16 c 0,-2.793 -2.27,-5.097 -5.11,-5.097 -2.832,0 -5.105,2.304 -5.105,5.097 0,2.84 2.273,5.137 5.105,5.137 2.84,0 5.11,-2.297 5.11,-5.137" /><path
             id="path36"
             style="fill:#80cc28;fill-opacity:1;fill-rule:nonzero;stroke:none"
             d="m 980.391,407.285 c 0,-1.883 -1.512,-3.379 -3.36,-3.379 -1.875,0 -3.359,1.496 -3.359,3.379 0,1.809 1.484,3.301 3.359,3.301 1.848,0 3.36,-1.492 3.36,-3.301" /><path
             id="path38"
             style="fill:#80cc28;fill-opacity:1;fill-rule:nonzero;stroke:none"
             d="m 979.57,421.418 c 0,-1.379 -1.152,-2.492 -2.539,-2.492 -1.394,0 -2.511,1.113 -2.511,2.492 0,1.375 1.117,2.52 2.511,2.52 1.387,0 2.539,-1.145 2.539,-2.52" /><path
             id="path40"
             style="fill:#80cc28;fill-opacity:1;fill-rule:nonzero;stroke:none"
             d="m 979.57,3.27344 c 0,-1.41797 -1.152,-2.500002 -2.539,-2.500002 -1.394,0 -2.511,1.082032 -2.511,2.500002 0,1.38672 1.117,2.53906 2.511,2.53906 1.387,0 2.539,-1.15234 2.539,-2.53906" /><path
             id="path42"
             style="fill:#80cc28;fill-opacity:1;fill-rule:nonzero;stroke:none"
             d="m 1194.71,212.922 c 0,-1.379 -1.15,-2.492 -2.57,-2.492 -1.3,0 -2.5,1.113 -2.5,2.492 0,1.387 1.2,2.519 2.5,2.519 1.42,0 2.57,-1.132 2.57,-2.519" /><path
             id="path44"
             style="fill:#80cc28;fill-opacity:1;fill-rule:nonzero;stroke:none"
             d="m 980.391,17.4414 c 0,-1.8359 -1.512,-3.3398 -3.36,-3.3398 -1.875,0 -3.359,1.5039 -3.359,3.3398 0,1.8477 1.484,3.3516 3.359,3.3516 1.848,0 3.36,-1.5039 3.36,-3.3516" /><path
             id="path46"
             style="fill:#80cc28;fill-opacity:1;fill-rule:nonzero;stroke:none"
             d="m 1181.35,212.922 c 0,-1.836 -1.51,-3.34 -3.35,-3.34 -1.88,0 -3.34,1.504 -3.34,3.34 0,1.883 1.46,3.348 3.34,3.348 1.84,0 3.35,-1.465 3.35,-3.348" /><path
             id="path48"
             style="fill:#80cc28;fill-opacity:1;fill-rule:nonzero;stroke:none"
             d="m 1109.87,339.523 c 0,-2.824 -2.3,-5.089 -5.14,-5.089 -2.79,0 -5.11,2.265 -5.11,5.089 0,2.84 2.32,5.125 5.11,5.125 2.84,0 5.14,-2.285 5.14,-5.125" /><path
             id="path50"
             style="fill:#80cc28;fill-opacity:1;fill-rule:nonzero;stroke:none"
             d="m 1109.87,85.5586 c 0,-2.793 -2.3,-5.1289 -5.14,-5.1289 -2.79,0 -5.11,2.3359 -5.11,5.1289 0,2.8203 2.32,5.1367 5.11,5.1367 2.84,0 5.14,-2.3164 5.14,-5.1367" /><path
             id="path52"
             style="fill:#80cc28;fill-opacity:1;fill-rule:nonzero;stroke:none"
             d="m 1161.84,212.922 c 0,-2.844 -2.31,-5.109 -5.09,-5.109 -2.84,0 -5.15,2.265 -5.15,5.109 0,2.82 2.31,5.137 5.15,5.137 2.78,0 5.09,-2.317 5.09,-5.137" /><path
             id="path54"
             style="fill:#80cc28;fill-opacity:1;fill-rule:nonzero;stroke:none"
             d="m 982.141,38.7227 c 0,-2.8516 -2.27,-5.1094 -5.11,-5.1094 -2.832,0 -5.105,2.2578 -5.105,5.1094 0,2.8007 2.273,5.0664 5.105,5.0664 2.84,0 5.11,-2.2657 5.11,-5.0664" /><path
             id="path56"
             style="fill:#80cc28;fill-opacity:1;fill-rule:nonzero;stroke:none"
             d="m 1088.17,315.117 c 0,-4.785 -3.83,-8.64 -8.63,-8.64 -4.76,0 -8.6,3.855 -8.6,8.64 0,4.797 3.84,8.664 8.6,8.664 4.8,0 8.63,-3.867 8.63,-8.664" /><path
             id="path58"
             style="fill:#80cc28;fill-opacity:1;fill-rule:nonzero;stroke:none"
             d="m 1088.17,109.621 c 0,-4.805 -3.83,-8.691 -8.63,-8.691 -4.76,0 -8.6,3.886 -8.6,8.691 0,4.754 3.84,8.633 8.6,8.633 4.8,0 8.63,-3.879 8.63,-8.633" /><path
             id="path60"
             style="fill:#80cc28;fill-opacity:1;fill-rule:nonzero;stroke:none"
             d="m 1131.53,212.922 c 0,-4.766 -3.87,-8.633 -8.68,-8.633 -4.76,0 -8.67,3.867 -8.67,8.633 0,4.793 3.91,8.68 8.67,8.68 4.81,0 8.68,-3.887 8.68,-8.68" /><path
             id="path62"
             style="fill:#80cc28;fill-opacity:1;fill-rule:nonzero;stroke:none"
             d="m 985.676,67.8711 c 0,-4.8047 -3.879,-8.6797 -8.645,-8.6797 -4.785,0 -8.652,3.875 -8.652,8.6797 0,4.7969 3.867,8.6328 8.652,8.6328 4.766,0 8.645,-3.8359 8.645,-8.6328" /><path
             id="path64"
             style="fill:#80cc28;fill-opacity:1;fill-rule:nonzero;stroke:none"
             d="m 1065.36,288.352 c 0,-7.375 -5.97,-13.399 -13.36,-13.399 -7.37,0 -13.4,6.024 -13.4,13.399 0,7.41 6.03,13.394 13.4,13.394 7.39,0 13.36,-5.984 13.36,-13.394" /><path
             id="path66"
             style="fill:#80cc28;fill-opacity:1;fill-rule:nonzero;stroke:none"
             d="m 1097.67,212.922 c 0,-7.375 -6.01,-13.371 -13.41,-13.371 -7.38,0 -13.32,5.996 -13.32,13.371 0,7.41 5.94,13.398 13.32,13.398 7.4,0 13.41,-5.988 13.41,-13.398" /><path
             id="path68"
             style="fill:#80cc28;fill-opacity:1;fill-rule:nonzero;stroke:none"
             d="m 1065.36,137.141 c 0,-7.403 -5.97,-13.352 -13.36,-13.352 -7.37,0 -13.4,5.949 -13.4,13.352 0,7.398 6.03,13.418 13.4,13.418 7.39,0 13.36,-6.02 13.36,-13.418" /><path
             id="path70"
             style="fill:#80cc28;fill-opacity:1;fill-rule:nonzero;stroke:none"
             d="m 990.391,106.465 c 0,-7.4025 -5.957,-13.3986 -13.36,-13.3986 -7.414,0 -13.386,5.9961 -13.386,13.3986 0,7.375 5.972,13.371 13.386,13.371 7.403,0 13.36,-5.996 13.36,-13.371" /><path
             id="path72"
             style="fill:#80cc28;fill-opacity:1;fill-rule:nonzero;stroke:none"
             d="m 993.992,153.281 c 0,-9.324 -7.586,-16.933 -16.961,-16.933 -9.343,0 -16.933,7.609 -16.933,16.933 0,9.375 7.59,16.973 16.933,16.973 9.375,0 16.961,-7.598 16.961,-16.973" /><path
             id="path74"
             style="fill:#80cc28;fill-opacity:1;fill-rule:nonzero;stroke:none"
             d="m 1053.55,212.922 c 0,-9.328 -7.57,-16.895 -16.95,-16.895 -9.3,0 -16.92,7.567 -16.92,16.895 0,9.375 7.62,16.933 16.92,16.933 9.38,0 16.95,-7.558 16.95,-16.933" /><path
             id="path76"
             style="fill:#80cc28;fill-opacity:1;fill-rule:nonzero;stroke:none"
             d="m 1035.45,255.703 c 0,-9.363 -7.61,-16.973 -16.94,-16.973 -9.33,0 -16.94,7.61 -16.94,16.973 0,9.297 7.61,16.906 16.94,16.906 9.33,0 16.94,-7.609 16.94,-16.906" /><path
             id="path78"
             style="fill:#80cc28;fill-opacity:1;fill-rule:nonzero;stroke:none"
             d="m 1035.45,171.426 c 0,-9.375 -7.61,-16.914 -16.94,-16.914 -9.33,0 -16.94,7.539 -16.94,16.914 0,9.328 7.61,16.933 16.94,16.933 9.33,0 16.94,-7.605 16.94,-16.933" /><path
             id="path80"
             style="fill:#80cc28;fill-opacity:1;fill-rule:nonzero;stroke:none"
             d="m 993.992,272.996 c 0,-9.363 -7.586,-16.93 -16.961,-16.93 -9.343,0 -16.933,7.567 -16.933,16.93 0,9.375 7.59,16.938 16.933,16.938 9.375,0 16.961,-7.563 16.961,-16.938" /><path
             id="path82"
             style="fill:#80cc28;fill-opacity:1;fill-rule:nonzero;stroke:none"
             d="m 990.391,319.074 c 0,-7.394 -5.957,-13.418 -13.36,-13.418 -7.414,0 -13.386,6.024 -13.386,13.418 0,7.371 5.972,13.379 13.386,13.379 7.403,0 13.36,-6.008 13.36,-13.379" /><path
             id="path84"
             style="fill:#80cc28;fill-opacity:1;fill-rule:nonzero;stroke:none"
             d="m 985.676,357.668 c 0,-4.797 -3.879,-8.703 -8.645,-8.703 -4.785,0 -8.652,3.906 -8.652,8.703 0,4.766 3.867,8.641 8.652,8.641 4.766,0 8.645,-3.875 8.645,-8.641" /><path
             id="path86"
             style="fill:#80cc28;fill-opacity:1;fill-rule:nonzero;stroke:none"
             d="m 982.141,387.16 c 0,-2.793 -2.27,-5.097 -5.11,-5.097 -2.832,0 -5.105,2.304 -5.105,5.097 0,2.84 2.273,5.137 5.105,5.137 2.84,0 5.11,-2.297 5.11,-5.137" /><path
             id="path88"
             style="fill:#80cc28;fill-opacity:1;fill-rule:nonzero;stroke:none"
             d="m 980.391,407.285 c 0,-1.883 -1.512,-3.379 -3.36,-3.379 -1.875,0 -3.359,1.496 -3.359,3.379 0,1.809 1.484,3.301 3.359,3.301 1.848,0 3.36,-1.492 3.36,-3.301" /><path
             id="path90"
             style="fill:#80cc28;fill-opacity:1;fill-rule:nonzero;stroke:none"
             d="m 979.57,421.418 c 0,-1.379 -1.152,-2.492 -2.539,-2.492 -1.394,0 -2.511,1.113 -2.511,2.492 0,1.375 1.117,2.52 2.511,2.52 1.387,0 2.539,-1.145 2.539,-2.52" /><path
             id="path92"
             style="fill:#80cc28;fill-opacity:1;fill-rule:nonzero;stroke:none"
             d="m 979.57,3.27344 c 0,-1.41797 -1.152,-2.500002 -2.539,-2.500002 -1.394,0 -2.511,1.082032 -2.511,2.500002 0,1.38672 1.117,2.53906 2.511,2.53906 1.387,0 2.539,-1.15234 2.539,-2.53906" /><path
             id="path94"
             style="fill:#80cc28;fill-opacity:1;fill-rule:nonzero;stroke:none"
             d="m 1194.71,212.922 c 0,-1.379 -1.15,-2.492 -2.57,-2.492 -1.3,0 -2.5,1.113 -2.5,2.492 0,1.387 1.2,2.519 2.5,2.519 1.42,0 2.57,-1.132 2.57,-2.519" /><path
             id="path96"
             style="fill:#80cc28;fill-opacity:1;fill-rule:nonzero;stroke:none"
             d="m 980.391,17.4414 c 0,-1.8359 -1.512,-3.3398 -3.36,-3.3398 -1.875,0 -3.359,1.5039 -3.359,3.3398 0,1.8477 1.484,3.3516 3.359,3.3516 1.848,0 3.36,-1.5039 3.36,-3.3516" /><path
             id="path98"
             style="fill:#80cc28;fill-opacity:1;fill-rule:nonzero;stroke:none"
             d="m 1181.35,212.922 c 0,-1.836 -1.51,-3.34 -3.35,-3.34 -1.88,0 -3.34,1.504 -3.34,3.34 0,1.883 1.46,3.348 3.34,3.348 1.84,0 3.35,-1.465 3.35,-3.348" /><path
             id="path100"
             style="fill:#80cc28;fill-opacity:1;fill-rule:nonzero;stroke:none"
             d="m 1109.87,339.523 c 0,-2.824 -2.3,-5.089 -5.14,-5.089 -2.79,0 -5.11,2.265 -5.11,5.089 0,2.84 2.32,5.125 5.11,5.125 2.84,0 5.14,-2.285 5.14,-5.125" /><path
             id="path102"
             style="fill:#80cc28;fill-opacity:1;fill-rule:nonzero;stroke:none"
             d="m 1109.87,85.5586 c 0,-2.793 -2.3,-5.1289 -5.14,-5.1289 -2.79,0 -5.11,2.3359 -5.11,5.1289 0,2.8203 2.32,5.1367 5.11,5.1367 2.84,0 5.14,-2.3164 5.14,-5.1367" /><path
             id="path104"
             style="fill:#80cc28;fill-opacity:1;fill-rule:nonzero;stroke:none"
             d="m 1161.84,212.922 c 0,-2.844 -2.31,-5.109 -5.09,-5.109 -2.84,0 -5.15,2.265 -5.15,5.109 0,2.82 2.31,5.137 5.15,5.137 2.78,0 5.09,-2.317 5.09,-5.137" /><path
             id="path106"
             style="fill:#80cc28;fill-opacity:1;fill-rule:nonzero;stroke:none"
             d="m 982.141,38.7227 c 0,-2.8516 -2.27,-5.1094 -5.11,-5.1094 -2.832,0 -5.105,2.2578 -5.105,5.1094 0,2.8007 2.273,5.0664 5.105,5.0664 2.84,0 5.11,-2.2657 5.11,-5.0664" /><path
             id="path108"
             style="fill:#80cc28;fill-opacity:1;fill-rule:nonzero;stroke:none"
             d="m 1088.17,315.117 c 0,-4.785 -3.83,-8.64 -8.63,-8.64 -4.76,0 -8.6,3.855 -8.6,8.64 0,4.797 3.84,8.664 8.6,8.664 4.8,0 8.63,-3.867 8.63,-8.664" /><path
             id="path110"
             style="fill:#80cc28;fill-opacity:1;fill-rule:nonzero;stroke:none"
             d="m 1088.17,109.621 c 0,-4.805 -3.83,-8.691 -8.63,-8.691 -4.76,0 -8.6,3.886 -8.6,8.691 0,4.754 3.84,8.633 8.6,8.633 4.8,0 8.63,-3.879 8.63,-8.633" /><path
             id="path112"
             style="fill:#80cc28;fill-opacity:1;fill-rule:nonzero;stroke:none"
             d="m 1131.53,212.922 c 0,-4.766 -3.87,-8.633 -8.68,-8.633 -4.76,0 -8.67,3.867 -8.67,8.633 0,4.793 3.91,8.68 8.67,8.68 4.81,0 8.68,-3.887 8.68,-8.68" /><path
             id="path114"
             style="fill:#80cc28;fill-opacity:1;fill-rule:nonzero;stroke:none"
             d="m 985.676,67.8711 c 0,-4.8047 -3.879,-8.6797 -8.645,-8.6797 -4.785,0 -8.652,3.875 -8.652,8.6797 0,4.7969 3.867,8.6328 8.652,8.6328 4.766,0 8.645,-3.8359 8.645,-8.6328" /><path
             id="path116"
             style="fill:#80cc28;fill-opacity:1;fill-rule:nonzero;stroke:none"
             d="m 1065.36,288.352 c 0,-7.375 -5.97,-13.399 -13.36,-13.399 -7.37,0 -13.4,6.024 -13.4,13.399 0,7.41 6.03,13.394 13.4,13.394 7.39,0 13.36,-5.984 13.36,-13.394" /><path
             id="path118"
             style="fill:#80cc28;fill-opacity:1;fill-rule:nonzero;stroke:none"
             d="m 1097.67,212.922 c 0,-7.375 -6.01,-13.371 -13.41,-13.371 -7.38,0 -13.32,5.996 -13.32,13.371 0,7.41 5.94,13.398 13.32,13.398 7.4,0 13.41,-5.988 13.41,-13.398" /><path
             id="path120"
             style="fill:#80cc28;fill-opacity:1;fill-rule:nonzero;stroke:none"
             d="m 1065.36,137.141 c 0,-7.403 -5.97,-13.352 -13.36,-13.352 -7.37,0 -13.4,5.949 -13.4,13.352 0,7.398 6.03,13.418 13.4,13.418 7.39,0 13.36,-6.02 13.36,-13.418" /><path
             id="path122"
             style="fill:#80cc28;fill-opacity:1;fill-rule:nonzero;stroke:none"
             d="m 990.391,106.465 c 0,-7.4025 -5.957,-13.3986 -13.36,-13.3986 -7.414,0 -13.386,5.9961 -13.386,13.3986 0,7.375 5.972,13.371 13.386,13.371 7.403,0 13.36,-5.996 13.36,-13.371" /><path
             id="path124"
             style="fill:#80cc28;fill-opacity:1;fill-rule:nonzero;stroke:none"
             d="m 993.992,153.281 c 0,-9.324 -7.586,-16.933 -16.961,-16.933 -9.343,0 -16.933,7.609 -16.933,16.933 0,9.375 7.59,16.973 16.933,16.973 9.375,0 16.961,-7.598 16.961,-16.973" /><path
             id="path126"
             style="fill:#171a15;fill-opacity:1;fill-rule:nonzero;stroke:none"
             d="m 31.0352,250.559 c -2.8907,0 -7.5782,-0.352 -10.4883,-0.891 v -36.629 c 2.7265,-0.351 7.4414,-0.723 11.3984,-0.723 16.0508,0 21.0899,8.672 21.0899,18.582 0,11.516 -7.9063,19.661 -22,19.661 z m 3.2617,-44.551 c -4.8828,0 -9.9102,0.156 -13.75,0.535 v -26.141 c 0,-2.714 2.3711,-6.328 7.2344,-7.422 v -2.324 c -2.7032,0 -11.7266,0.332 -14.2383,0.332 -2.1875,0 -10.8555,-0.332 -13.543,-0.332 v 2.324 c 4.51953,0.934 6.875,4.54 6.875,7.422 v 65.645 c 0,2.715 -2,6.316 -6.875,7.226 v 2.332 c 2.6875,0 11.3555,-0.359 13.8672,-0.359 4.1797,0 16.2812,0.918 20.957,0.918 16.5899,0 33.1953,-7.219 33.1953,-25.266 0,-14.941 -14.2578,-24.89 -33.7226,-24.89" /><path
             id="path128"
             style="fill:#171a15;fill-opacity:1;fill-rule:nonzero;stroke:none"
             d="m 132.645,250.559 c -2.918,0 -7.567,-0.352 -10.477,-0.891 v -35.195 c 2.727,-0.36 7.402,-0.528 11.379,-0.528 16.043,0 21.141,9.192 21.141,17.305 0,11.563 -8.008,19.309 -22.043,19.309 z m 23.625,-71.973 -24.891,28.887 c -3.457,0 -6.484,0.144 -9.211,0.515 v -27.586 c 0,-2.714 2.344,-6.328 7.207,-7.422 v -2.324 c -2.676,0 -11.699,0.332 -14.238,0.332 -2.176,0 -10.789,-0.332 -13.535,-0.332 v 2.324 c 4.511,0.934 6.882,4.54 6.882,7.422 v 65.645 c 0,2.715 -2.007,6.316 -6.882,7.226 v 2.332 c 2.746,0 11.359,-0.359 13.918,-0.359 4.128,0 16.25,0.918 20.906,0.918 16.582,0 33.215,-7.023 33.215,-25.098 0,-10.812 -8.696,-18.937 -21.477,-22.168 l 21.809,-25.285 c 3.269,-3.769 7.781,-8.449 11.953,-10.633 v -1.992 c -12.473,-1.769 -18.266,-0.89 -25.656,7.598" /><path
             id="path130"
             style="fill:#171a15;fill-opacity:1;fill-rule:nonzero;stroke:none"
             d="m 249.004,250.559 c -22,0 -31.731,-18.196 -31.731,-37.336 0,-19.16 9.731,-37.52 31.731,-37.52 22.051,0 31.379,18.36 31.379,37.52 0,19.14 -9.328,37.336 -31.379,37.336 z m 0,-81.164 c -28.496,0 -46.691,20.195 -46.691,43.828 0,23.625 18.195,43.672 46.691,43.672 28.351,0 46.394,-20.047 46.394,-43.672 0,-23.633 -18.043,-43.828 -46.394,-43.828" /><path
             id="path132"
             style="fill:#171a15;fill-opacity:1;fill-rule:nonzero;stroke:none"
             d="m 418.816,170.988 c -2.136,0 -10.625,-0.156 -12.625,-0.156 v 2.148 c 3.954,0.934 6.719,3.262 6.309,7.215 l -4.133,53.235 -29.051,-62.442 h -5.605 l -33.184,62.793 -5.234,-53.586 c -0.203,-2.507 1.816,-6.121 7.773,-7.215 v -2.148 c -2.003,0 -9.753,0.156 -12.285,0.156 -2.187,0 -9.035,-0.156 -11.023,-0.156 v 2.148 c 3.98,0.934 7.398,4.708 7.605,7.422 l 6.094,63.856 c 0.391,4.347 -1.582,7.949 -5.535,9.015 v 2.332 c 3.008,0 6.277,-0.359 8.609,-0.359 2.16,0 5.09,0.359 7.949,0.359 l 34.836,-66.015 30.829,66.015 c 2.929,0 5.812,-0.359 8,-0.359 2.324,0 5.539,0.359 8.632,0.359 v -2.332 c -3.964,-1.066 -5.984,-4.668 -5.605,-9.015 l 5.039,-63.856 c 0.195,-2.882 2.187,-6.488 6.144,-7.422 v -2.148 c -1.972,0 -11.027,0.156 -13.539,0.156" /><path
             id="path134"
             style="fill:#171a15;fill-opacity:1;fill-rule:nonzero;stroke:none"
             d="m 525.508,170.293 c -8.153,0.695 -13.008,0.695 -22.168,0.695 h -27.461 c -2.527,0 -11.223,-0.332 -13.914,-0.332 v 2.324 c 4.844,0.934 6.851,4.708 6.851,7.606 v 65.461 c 0,2.715 -2.156,6.316 -6.851,7.226 v 2.332 h 55.39 c 1.637,0 4.54,0.208 6.141,0.911 h 2.356 l -0.344,-16.594 h -2.344 c -1.965,5.422 -6.902,9.023 -14.101,9.023 H 482.52 v -30.683 h 23.515 c 3.75,0 6.633,1.457 8.621,4.726 h 2.364 c -0.196,-2.187 -0.196,-6.347 -0.196,-7.8 0,-1.407 0.196,-5.411 0.196,-7.715 h -2.364 c -1.988,3.023 -4.871,4.492 -8.621,4.492 H 482.52 V 177.52 h 26.191 c 9.023,0 14.07,3.066 16.797,8.468 l 2.305,-0.519 -2.305,-15.176" /><path
             id="path136"
             style="fill:#171a15;fill-opacity:1;fill-rule:nonzero;stroke:none"
             d="m 634.355,238.301 h -2.343 c -2.188,7.578 -6.375,9.57 -12.102,9.57 h -19.351 v -67.469 c 0,-2.714 3.457,-6.488 8.484,-7.578 v -2.168 c -2.688,0 -12.957,0.332 -15.508,0.332 -2.156,0 -12.097,-0.332 -14.758,-0.332 v 2.324 c 4.844,0.934 8.125,4.708 8.125,7.422 v 67.469 h -19.136 c -5.625,0 -9.953,-1.824 -12.121,-9.57 h -2.352 l -0.363,17.863 c 5.976,-0.351 11.758,-0.918 40.965,-0.918 29.289,0 34.855,0.567 40.8,0.918 l -0.34,-17.863" /><path
             id="path138"
             style="fill:#171a15;fill-opacity:1;fill-rule:nonzero;stroke:none"
             d="m 689.363,250.559 c -2.859,0 -7.605,-0.352 -10.468,-0.891 v -35.195 c 2.714,-0.36 7.421,-0.508 11.398,-0.508 16.023,0 21.055,9.172 21.055,17.285 0,11.563 -7.91,19.309 -21.985,19.309 z m 23.633,-71.973 -24.891,28.887 c -3.417,0 -6.496,0.144 -9.21,0.515 v -27.586 c 0,-2.714 2.394,-6.328 7.226,-7.422 v -2.324 c -2.715,0 -11.734,0.332 -14.246,0.332 -2.148,0 -10.828,-0.332 -13.562,-0.332 v 2.324 c 4.507,0.934 6.902,4.54 6.902,7.422 v 65.645 c 0,2.715 -1.985,6.316 -6.902,7.226 v 2.332 c 2.734,0 11.414,-0.359 13.921,-0.359 4.153,0 16.223,0.918 20.918,0.918 16.633,0 33.215,-7.023 33.215,-25.098 0,-10.812 -8.633,-18.937 -21.465,-22.168 l 21.856,-25.285 c 3.222,-3.769 7.715,-8.449 11.863,-10.633 v -1.992 c -12.422,-1.769 -18.199,-0.89 -25.625,7.598" /><path
             id="path140"
             style="fill:#171a15;fill-opacity:1;fill-rule:nonzero;stroke:none"
             d="m 781.211,170.988 c -2.512,0 -12.813,-0.332 -14.785,-0.332 v 2.324 c 5.39,1.094 7.558,3.797 7.558,7.215 v 65.852 c 0,3.457 -2.168,6.16 -7.558,7.226 v 2.332 c 1.972,0 12.273,-0.359 14.785,-0.359 2.187,0 12.266,0.359 14.285,0.359 v -2.332 c -5.262,-1.281 -7.793,-3.605 -7.793,-7.226 v -65.852 c 0,-3.601 2.531,-5.949 7.793,-7.215 v -2.324 c -2.019,0 -12.098,0.332 -14.285,0.332" /><path
             id="path142"
             style="fill:#171a15;fill-opacity:1;fill-rule:nonzero;stroke:none"
             d="m 903.203,173.914 c -0.527,0.16 -3.406,-0.348 -7.195,-1.09 -8.313,-1.613 -15.356,-3.429 -24.004,-3.429 -33.039,0 -49.277,19.472 -49.277,43.828 0,24.543 19.148,43.672 49.277,43.672 9.019,0 15.105,-1.973 19.312,-2.704 4.875,-0.918 8.821,-1.632 10.469,-1.632 l 1.028,-15.176 h -2.344 c -5.391,9.777 -18.028,13.176 -28.465,13.176 -21.66,0 -34.301,-16.614 -34.301,-37.336 0,-16.778 12.246,-37.52 34.301,-37.52 10.976,0 24.187,2.883 29.949,13.164 h 2.344 l -1.094,-14.953" /><path
             id="path144"
             style="fill:#80cc28;fill-opacity:1;fill-rule:nonzero;stroke:none"
             d="m 1004.49,11.8867 h 1.44 c 1.7,0 2.52,0.4844 2.52,1.6797 0,1.2695 -0.88,1.8047 -2.65,1.8047 h -1.31 z m 1.81,5.3711 c 3.46,0 5.18,-1.164 5.18,-3.5078 0,-1.5625 -0.99,-2.793 -2.64,-3.2109 l 2.69,-5.42191 h -3.28 l -2.32,4.95311 h -1.44 V 5.11719 h -2.96 V 17.2578 Z m -6.566,0.2617 c -1.765,-1.7656 -2.761,-4.1015 -2.761,-6.5234 0,-2.42188 0.898,-4.68751 2.605,-6.38672 1.772,-1.79688 4.072,-2.75391 6.482,-2.75391 2.39,0 4.65,0.91797 6.47,2.63672 1.72,1.66015 2.68,3.96484 2.68,6.30861 0,2.6172 -0.88,4.8359 -2.58,6.5703 -1.78,1.8008 -4.01,2.7656 -6.52,2.7656 -2.51,0 -4.65,-0.8789 -6.376,-2.6172 z m 14.176,1.1133 c 2.03,-2.0312 3.11,-4.7656 3.11,-7.6758 0,-2.99606 -1.14,-5.72262 -3.23,-7.76169 C 1011.65,1.12109 1008.89,0 1006.06,0 c -2.91,0 -5.67,1.20313 -7.79,3.35156 -2.04,2.07032 -3.114,4.79297 -3.114,7.60544 0,1.9532 0.508,3.8789 1.602,5.6758 1.933,3.3477 5.352,5.3008 9.302,5.3008 3,0 5.75,-1.1406 7.85,-3.3008" /></g></g></g></g></svg>